<?xml version="1.0" encoding="iso-8859-1"?>
<!-- Generator: Adobe Illustrator 18.1.1, SVG Export Plug-In . SVG Version: 6.00 Build 0)  -->
<svg version="1.1" id="Capa_1" xmlns="http://www.w3.org/2000/svg" xmlns:xlink="http://www.w3.org/1999/xlink" x="0px" y="0px"
	 viewBox="0 0 84 84" style="enable-background:new 0 0 84 84;" xml:space="preserve">
<g>
	<path style="fill:#030104;" d="M46.75,60.981V23.019C51.014,21.178,54,16.938,54,12c0-6.628-5.373-12-12-12
		c-6.626,0-12,5.372-12,12c0,4.938,2.987,9.178,7.25,11.019v37.963C32.987,62.821,30,67.061,30,72c0,6.626,5.374,12,12,12
		c6.627,0,12-5.374,12-12C54,67.061,51.014,62.821,46.75,60.981z M35.078,12c0-3.823,3.101-6.923,6.922-6.923
		c3.824,0,6.923,3.1,6.923,6.923s-3.1,6.923-6.923,6.923C38.178,18.923,35.078,15.823,35.078,12z M42,78.923
		c-3.822,0-6.922-3.1-6.922-6.923s3.1-6.923,6.922-6.923c3.824,0,6.923,3.1,6.923,6.923S45.824,78.923,42,78.923z"/>
</g>
<g>
</g>
<g>
</g>
<g>
</g>
<g>
</g>
<g>
</g>
<g>
</g>
<g>
</g>
<g>
</g>
<g>
</g>
<g>
</g>
<g>
</g>
<g>
</g>
<g>
</g>
<g>
</g>
<g>
</g>
</svg>
