<?xml version="1.0" encoding="UTF-8" standalone="no"?>
<!-- Generator: Adobe Illustrator 18.1.1, SVG Export Plug-In . SVG Version: 6.00 Build 0)  -->

<svg
   xmlns:dc="http://purl.org/dc/elements/1.1/"
   xmlns:cc="http://creativecommons.org/ns#"
   xmlns:rdf="http://www.w3.org/1999/02/22-rdf-syntax-ns#"
   xmlns:svg="http://www.w3.org/2000/svg"
   xmlns="http://www.w3.org/2000/svg"
   xmlns:sodipodi="http://sodipodi.sourceforge.net/DTD/sodipodi-0.dtd"
   xmlns:inkscape="http://www.inkscape.org/namespaces/inkscape"
   version="1.1"
   id="Capa_1"
   x="0px"
   y="0px"
   viewBox="0 0 21.952 21.952"
   style="enable-background:new 0 0 21.952 21.952;"
   xml:space="preserve"
   inkscape:version="0.91 r13725"
   sodipodi:docname="unpinch.svg"><metadata
     id="metadata45"><rdf:RDF><cc:Work
         rdf:about=""><dc:format>image/svg+xml</dc:format><dc:type
           rdf:resource="http://purl.org/dc/dcmitype/StillImage" /><dc:title></dc:title></cc:Work></rdf:RDF></metadata><defs
     id="defs43" /><sodipodi:namedview
     pagecolor="#ffffff"
     bordercolor="#666666"
     borderopacity="1"
     objecttolerance="10"
     gridtolerance="10"
     guidetolerance="10"
     inkscape:pageopacity="0"
     inkscape:pageshadow="2"
     inkscape:window-width="1280"
     inkscape:window-height="751"
     id="namedview41"
     showgrid="false"
     inkscape:zoom="10.750729"
     inkscape:cx="10.976"
     inkscape:cy="10.976"
     inkscape:window-x="0"
     inkscape:window-y="1"
     inkscape:window-maximized="1"
     inkscape:current-layer="g5" /><g
     id="g3"><g
       id="g5"><path
         style="fill:#030104"
         d="m 0.30703816,19.285578 4.38200004,0.244 c 0,0 0.573,0.104 0.299,-0.267 -0.273,-0.371 -0.936,-1.271 -0.936,-1.271 0,0 0.219,-0.159 0.553,-0.406 0.566,-0.418 1.403,-1.035 2.141,-1.578 0.265,0.094 0.547,0.156 0.845,0.156 1.388,0 2.5129998,-1.125 2.5129998,-2.514 0,-1.387 -1.1249998,-2.512 -2.5129998,-2.512 -1.388,0 -2.513,1.125 -2.513,2.512 0,0.045 0.011,0.088 0.013,0.133 -0.739,0.545 -1.57,1.158 -2.108,1.553 -0.299,0.223 -0.495,0.369 -0.495,0.369 0,0 -0.531,-0.721 -0.864,-1.174 -0.333,-0.451 -0.42,0.139 -0.42,0.139 0,0 -1.12900004,3.791 -1.19900004,4.254 -0.051,0.336 0.302,0.362 0.302,0.362 z"
         id="path7"
         inkscape:connector-curvature="0" /><path
         style="fill:#030104"
         d="m 14.360771,10.814174 c 1.389,0 2.514,-1.1259999 2.514,-2.5139999 0,-0.045 -0.011,-0.087 -0.014,-0.132 0.74,-0.545 1.57,-1.158 2.109,-1.555 0.3,-0.222 0.495,-0.364 0.495,-0.364 0,0 0.531,0.718 0.864,1.171 0.332,0.45 0.42,-0.138 0.42,-0.138 0,0 1.13,-3.792 1.198,-4.254 0.052,-0.338 -0.301,-0.362 -0.301,-0.362 l -4.382,-0.244 c 0,0 -0.574,-0.103 -0.301,0.267 0.273,0.372 0.937,1.269 0.937,1.269 0,0 -0.22,0.161 -0.554,0.408 -0.564,0.417 -1.402,1.033 -2.141,1.579 -0.265,-0.095 -0.547,-0.155 -0.846,-0.155 -1.386999,0 -2.512999,1.125 -2.512999,2.511 0.002,1.387 1.128,2.5129999 2.514999,2.5129999 z"
         id="path9"
         inkscape:connector-curvature="0" /></g></g><g
     id="g11" /><g
     id="g13" /><g
     id="g15" /><g
     id="g17" /><g
     id="g19" /><g
     id="g21" /><g
     id="g23" /><g
     id="g25" /><g
     id="g27" /><g
     id="g29" /><g
     id="g31" /><g
     id="g33" /><g
     id="g35" /><g
     id="g37" /><g
     id="g39" /></svg>